<svg xmlns="http://www.w3.org/2000/svg" xmlns:xlink="http://www.w3.org/1999/xlink" width="99.33" height="237.545" viewBox="0 0 99.33 237.545"><defs><clipPath id="a"><path d="M2251.609,695l10.648,14.087-.166,206.247-10.44,11.6-44.083-21.544,4.682-15.081-16.076,3.812-24.2-36.833,10.441-11.021-14.418-2.2.124-50.671,11.766-6.712-9.363-12.429,22-45.575,14.916,3.4-2.237-15.868Z" transform="translate(-2168 -695)" clip-rule="evenodd"/></clipPath></defs><g transform="translate(-139 -152.647)"><g transform="translate(-3646.598 337.978)"><g transform="translate(3785.598 -185.332)"><path d="M2201.4,645.638,2190.8,631.551l3.853-3.6,10.648,14.128.58,1.781Zm3.895-3.563a3.027,3.027,0,0,1-.332,3.936,2.356,2.356,0,0,1-3.563-.373Zm-4.64,208.028.166-206.247h5.055l-.166,206.247-.746,1.989Zm5.054,0a2.542,2.542,0,1,1-5.054,0Zm-14.75,9.612,10.441-11.6,3.563,3.977-10.441,11.559-2.817.621Zm3.563,3.936a2.339,2.339,0,0,1-3.563.041,3.024,3.024,0,0,1,0-3.977Zm-44.87-26.019,44.083,21.5-2.03,5.137-44.083-21.544-1.367-3.48Zm-2.03,5.1a2.894,2.894,0,0,1-1.284-3.687,2.429,2.429,0,0,1,3.314-1.409Zm8.121-16.738-4.723,15.081-4.765-1.823,4.723-15.081,1.865-1.823Zm-4.765-1.823a2.439,2.439,0,0,1,3.19-1.74,2.869,2.869,0,0,1,1.574,3.563Zm-14.252,1.989,16.117-3.812,1.036,5.469-16.075,3.812-2.569-1.119Zm1.077,5.469a2.572,2.572,0,0,1-3.025-2.154,2.819,2.819,0,0,1,1.947-3.315Zm-22.7-41.183,24.2,36.791-4.06,3.273L2111,793.715l.332-3.687Zm-4.1,3.273a3.035,3.035,0,0,1,.58-3.895,2.369,2.369,0,0,1,3.522.622Zm14.252-10.648-10.441,11.021-3.48-4.06,10.441-11.021,2.071-.746Zm-3.48-4.06a2.34,2.34,0,0,1,3.563.083,3.074,3.074,0,0,1-.083,3.977Zm-12.347-2.942,14.418,2.2-.663,5.552-14.459-2.237-2.155-2.776Zm-.7,5.51a2.783,2.783,0,0,1-2.155-3.149,2.59,2.59,0,0,1,2.859-2.362Zm2.983-53.364-.083,50.629-5.055-.041.124-50.629,1.367-2.486Zm-5.013-.041a2.522,2.522,0,1,1,5.013.041Zm15.454-4.226-11.808,6.712-2.279-4.972,11.767-6.67,3.107.663Zm-2.32-4.93a2.408,2.408,0,0,1,3.4,1.2,2.869,2.869,0,0,1-1.077,3.729Zm-6.256-11.767,9.364,12.429-3.895,3.6-9.364-12.471-.29-3.107Zm-3.895,3.563a3.027,3.027,0,0,1,.332-3.936,2.385,2.385,0,0,1,3.563.373Zm26.185-46.031-22,45.575-4.475-2.652,22-45.575,2.734-1.409Zm-4.475-2.652a2.446,2.446,0,0,1,3.439-1.16,3.017,3.017,0,0,1,1.036,3.812ZM2148,669.586l-14.874-3.4.994-5.469,14.916,3.4,1.989,2.32Zm1.036-5.469a2.819,2.819,0,0,1,1.947,3.315,2.533,2.533,0,0,1-2.983,2.154Zm-.249-13.59,2.237,15.91-5.013.87-2.237-15.91,1.533-3.025Zm-5.013.87a2.791,2.791,0,0,1,2.113-3.19,2.547,2.547,0,0,1,2.9,2.32Zm49.925-19.059-46.445,21.213-1.947-5.179,46.445-21.213,2.9.787Zm-1.947-5.179a2.464,2.464,0,0,1,3.314,1.533,2.945,2.945,0,0,1-1.367,3.646Z" transform="translate(-2106.548 -626.95)" fill="#404040"/></g><g transform="translate(3788.144 -182.512)" clip-path="url(#a)"><g transform="translate(8.079 19.887)"><path d="M3396.1,1194.763c0,1.574-1.284,2.361-3.895,2.361q-3.853,0-3.853-2.361v-14.708q0-2.362,3.853-2.362c2.61,0,3.895.787,3.895,2.362Zm3.356-15.413c0-2.9-2.4-4.35-7.25-4.35q-7.209,0-7.209,4.35v16.117q0,4.35,7.209,4.35c4.848,0,7.25-1.45,7.25-4.35Z" transform="translate(-3342.657 -1175)" fill="#404040" fill-rule="evenodd"/><path d="M4038,1185.03v2.693h3.895v19.431h3.356V1183h-3.356C4041.895,1184.367,4040.569,1185.03,4038,1185.03Z" transform="translate(-3968.602 -1182.669)" fill="#404040" fill-rule="evenodd"/><path d="M2865,2003.03v2.652h3.853v19.431h3.356V2001h-3.356C2868.853,2002.326,2867.569,2003.03,2865,2003.03Z" transform="translate(-2844.201 -1966.777)" fill="#404040" fill-rule="evenodd"/><path d="M3472,2003.03v2.652h3.895v19.431h3.356V2001h-3.356C3475.895,2002.326,3474.569,2003.03,3472,2003.03Z" transform="translate(-3426.052 -1966.777)" fill="#404040" fill-rule="evenodd"/><path d="M3962.1,2012.763c0,1.574-1.284,2.362-3.895,2.362q-3.853,0-3.853-2.362v-14.75c0-1.533,1.284-2.32,3.853-2.32,2.61,0,3.895.787,3.895,2.32Zm3.356-15.413c0-2.9-2.4-4.35-7.25-4.35q-7.209,0-7.209,4.35v16.076q0,4.35,7.209,4.35c4.848,0,7.25-1.45,7.25-4.35Z" transform="translate(-3885.207 -1959.109)" fill="#404040" fill-rule="evenodd"/><path d="M2788.145,2828.763c0,1.574-1.326,2.362-3.895,2.362s-3.895-.787-3.895-2.362v-14.708c0-1.574,1.326-2.362,3.895-2.362s3.895.787,3.895,2.362Zm3.356-15.413c0-2.9-2.444-4.35-7.25-4.35s-7.25,1.45-7.25,4.35v16.075c0,2.942,2.444,4.392,7.25,4.392s7.25-1.45,7.25-4.392Z" transform="translate(-2759.847 -2741.301)" fill="#404040" fill-rule="evenodd"/><path d="M3396.1,2828.763c0,1.574-1.284,2.362-3.895,2.362q-3.853,0-3.853-2.362v-14.708q0-2.362,3.853-2.362c2.61,0,3.895.787,3.895,2.362Zm3.356-15.413c0-2.9-2.4-4.35-7.25-4.35q-7.209,0-7.209,4.35v16.075c0,2.942,2.4,4.392,7.209,4.392,4.848,0,7.25-1.45,7.25-4.392Z" transform="translate(-3342.657 -2741.301)" fill="#404040" fill-rule="evenodd"/><path d="M3962.1,2828.763c0,1.574-1.284,2.362-3.895,2.362q-3.853,0-3.853-2.362v-14.708q0-2.362,3.853-2.362c2.61,0,3.895.787,3.895,2.362Zm3.356-15.413c0-2.9-2.4-4.35-7.25-4.35q-7.209,0-7.209,4.35v16.075c0,2.942,2.4,4.392,7.209,4.392,4.848,0,7.25-1.45,7.25-4.392Z" transform="translate(-3885.207 -2741.301)" fill="#404040" fill-rule="evenodd"/><path d="M2374.1,3657.763c0,1.574-1.284,2.362-3.895,2.362-2.569,0-3.895-.787-3.895-2.362v-14.75c0-1.533,1.326-2.32,3.895-2.32,2.61,0,3.895.787,3.895,2.32Zm3.356-15.413c0-2.9-2.4-4.35-7.25-4.35q-7.209,0-7.209,4.35v16.075q0,4.35,7.209,4.35c4.848,0,7.25-1.45,7.25-4.35Z" transform="translate(-2363 -3535.954)" fill="#404040" fill-rule="evenodd"/><path d="M2883,3639.989v2.693h3.853v19.431h3.356V3638h-3.356Q2886.853,3639.989,2883,3639.989Z" transform="translate(-2861.456 -3535.954)" fill="#404040" fill-rule="evenodd"/><path d="M3472,3639.989v2.693h3.895v19.431h3.356V3638h-3.356C3475.895,3639.326,3474.569,3639.989,3472,3639.989Z" transform="translate(-3426.052 -3535.954)" fill="#404040" fill-rule="evenodd"/><path d="M3962.1,3649.763c0,1.574-1.284,2.32-3.895,2.32-2.569,0-3.853-.746-3.853-2.32v-14.75c0-1.574,1.284-2.32,3.853-2.32,2.61,0,3.895.746,3.895,2.32Zm3.356-15.413c0-2.9-2.4-4.35-7.25-4.35q-7.209,0-7.209,4.35v16.076q0,4.35,7.209,4.35c4.848,0,7.25-1.45,7.25-4.35Z" transform="translate(-3885.207 -3528.285)" fill="#404040" fill-rule="evenodd"/><path d="M2883,4462.989v2.693h3.853v19.432h3.356V4461h-3.356Q2886.853,4462.989,2883,4462.989Z" transform="translate(-2861.456 -4324.856)" fill="#404040" fill-rule="evenodd"/><path d="M3396.1,4472.763c0,1.533-1.284,2.32-3.895,2.32-2.569,0-3.853-.787-3.853-2.32v-14.749q0-2.363,3.853-2.362c2.61,0,3.895.787,3.895,2.362Zm3.356-15.412c0-2.9-2.4-4.351-7.25-4.351q-7.209,0-7.209,4.351v16.075q0,4.351,7.209,4.351c4.848,0,7.25-1.45,7.25-4.351Z" transform="translate(-3342.657 -4317.187)" fill="#404040" fill-rule="evenodd"/><path d="M3962.1,4472.763c0,1.533-1.284,2.32-3.895,2.32-2.569,0-3.853-.787-3.853-2.32v-14.749q0-2.363,3.853-2.362c2.61,0,3.895.787,3.895,2.362Zm3.356-15.412c0-2.9-2.4-4.351-7.25-4.351q-7.209,0-7.209,4.351v16.075q0,4.351,7.209,4.351c4.848,0,7.25-1.45,7.25-4.351Z" transform="translate(-3885.207 -4317.187)" fill="#404040" fill-rule="evenodd"/><path d="M4038,5286.03v2.693h3.895v19.39h3.356V5284h-3.356C4041.895,5285.367,4040.569,5286.03,4038,5286.03Z" transform="translate(-3968.602 -5113.757)" fill="#404040" fill-rule="evenodd"/></g></g></g></g></svg>